<svg version="1.1" xmlns="http://www.w3.org/2000/svg" xlink="http://www.w3.org/1999/xlink" x="0px" y="0px" width="203.8px" height="90px" fill-opacity="20%" viewBox="0 0 203.8 90">
					<defs></defs>
					<g>
<path d="M124.6,60.6H5.4c-2.9,0-5.4-2.5-5.4-5.4V5.4C0,2.5,2.5,0,5.4,0h119.2c3,0,5.4,2.5,5.4,5.4v49.8
	C130,58.1,127.6,60.6,124.6,60.6z M25.1,45.6h7.4c2.9,0,5.2-0.8,6.6-2.3c1.4-1.5,2.1-3.9,2.1-7.1V24.9c0-3.3-0.7-5.6-2.1-7.1
	s-3.6-2.3-6.6-2.3h-7.4V45.6z M29.8,41.2V19.7h2.3c1.6,0,2.8,0.5,3.5,1.5c0.7,0.9,1,2.6,1,5v8.7c0,2.3-0.3,4-1,5
	c-0.7,1-1.9,1.5-3.5,1.5C32.1,41.2,29.8,41.2,29.8,41.2z M44,35.9c0,1.7,0.2,3.1,0.4,4.2c0.3,1.1,0.7,2.1,1.3,2.9
	c1.4,1.9,3.6,2.9,6.5,2.9s5.1-0.9,6.5-2.9c0.6-0.9,1.1-1.9,1.3-2.9c0.2-1.1,0.4-2.5,0.4-4.2V25c0-1.7-0.2-3.1-0.4-4.2
	c-0.3-1.1-0.7-2.1-1.3-2.9c-1.4-1.9-3.6-2.9-6.5-2.9c-2.9,0-5.1,0.9-6.5,2.9c-0.6,0.9-1.1,1.9-1.3,2.9C44.1,21.9,44,23.3,44,25V35.9
	z M55.6,25.1V36c0,0.6,0,1.2,0,1.5s0,0.8-0.1,1.1c0,0.3-0.1,0.5-0.2,0.8s-0.2,0.5-0.3,0.7c-0.2,0.5-0.6,0.9-1.2,1.2
	s-1.1,0.5-1.8,0.5s-1.2-0.2-1.8-0.5c-0.5-0.2-0.9-0.6-1.2-1.2c-0.2-0.2-0.2-0.5-0.3-0.7c-0.1-0.2-0.1-0.5-0.2-0.9
	c0-0.3-0.1-0.7-0.1-1.1c0-0.5,0-0.9,0-1.5V25.1c0-1.2,0-2.1,0.1-2.6c0.1-0.5,0.2-1,0.5-1.5c0.2-0.5,0.7-0.9,1.2-1.2
	c0.5-0.3,1.1-0.5,1.8-0.5s1.2,0.2,1.8,0.5c0.5,0.2,0.9,0.6,1.2,1.2c0.2,0.2,0.2,0.5,0.3,0.7c0.1,0.2,0.1,0.5,0.2,0.8
	c0,0.3,0.1,0.7,0.1,1.1C55.7,24,55.7,24.4,55.6,25.1L55.6,25.1z M63.1,45.5h4.4V23.4L72,45.5H76l4.6-22.1v22.1H85v-30h-6.7
	l-4.2,21.7l-4.2-21.7h-6.8V45.5z M87.2,45.5h4.6L93,39h6.4l1.3,6.5h4.8l-6.1-30h-6.3L87.2,45.5z M96.2,21.2l2.5,13.5h-4.9L96.2,21.2
	z"></path>

							
					</g>
					</svg>